<?xml version="1.0" encoding="utf-8"?>
<!-- Generator: Adobe Illustrator 16.0.0, SVG Export Plug-In . SVG Version: 6.00 Build 0)  -->
<!DOCTYPE svg PUBLIC "-//W3C//DTD SVG 1.1//EN" "http://www.w3.org/Graphics/SVG/1.1/DTD/svg11.dtd">
<svg version="1.1" id="Calque_1" xmlns="http://www.w3.org/2000/svg" xmlns:xlink="http://www.w3.org/1999/xlink" x="0px" y="0px"
	 width="30px" height="30px" viewBox="0 0 30 30" enable-background="new 0 0 30 30" xml:space="preserve">
<g>
	<path d="M28.5,15c0,3.3-6.3,10.1-13.5,10.1C7.7,25.1,1.5,18.3,1.5,15S7.7,4.9,15,4.9C22.2,4.9,28.5,11.7,28.5,15z M26.1,15
		c0-1.6-4.9-7.7-11.1-7.7C8.8,7.3,3.9,13.4,3.9,15c0,1.6,4.9,7.7,11.1,7.7C21.2,22.7,26.1,16.6,26.1,15z M20.2,12.4
		c0.4,0.8,0.6,1.7,0.6,2.6c0,3.2-2.6,5.8-5.8,5.8c-3.2,0-5.8-2.6-5.8-5.8c0-3.2,2.6-5.8,5.8-5.8v2.4c-1.9,0-3.4,1.5-3.4,3.4
		c0,1.9,1.5,3.4,3.4,3.4c1.9,0,3.4-1.5,3.4-3.4c0-0.5-0.1-1.1-0.4-1.5L20.2,12.4z"/>
</g>
</svg>
