<?xml version="1.0" encoding="utf-8"?>
<!-- Generator: Adobe Illustrator 16.0.0, SVG Export Plug-In . SVG Version: 6.00 Build 0)  -->
<!DOCTYPE svg PUBLIC "-//W3C//DTD SVG 1.1//EN" "http://www.w3.org/Graphics/SVG/1.1/DTD/svg11.dtd">
<svg version="1.1" id="Calque_1" xmlns="http://www.w3.org/2000/svg" xmlns:xlink="http://www.w3.org/1999/xlink" x="0px" y="0px"
	 width="529.333px" height="69.334px" viewBox="0 0 529.333 69.334" enable-background="new 0 0 529.333 69.334"
	 xml:space="preserve">
<g>
	<path fill="#222222" d="M196.866,26.302V20.85h-34.269v5.452h14.199v37.024h5.871V26.302H196.866L196.866,26.302z M225.443,63.326
		h6.83l-10.125-17.793c6.41-1.199,10.305-5.933,10.305-12.041c0-7.01-4.973-12.643-13-12.643h-15.996v42.477h5.931V45.953h6.35
		L225.443,63.326L225.443,63.326z M209.387,40.681V26.123h8.986c4.793,0,8.027,2.875,8.027,7.37c0,4.371-3.234,7.188-8.027,7.188
		H209.387L209.387,40.681z M319.083,63.326v-5.451h-19.953v-13h18.094V39.36h-18.094v-13.06h19.951V20.85h-25.822v42.477
		L319.083,63.326L319.083,63.326z M363.592,63.326V20.85h-5.871v32.592L336.512,20.85h-7.848v42.477h5.871V28.699l22.947,34.627
		H363.592L363.592,63.326z M409.905,63.326V20.85h-5.871v32.592L382.825,20.85h-7.852v42.477h5.873V28.699l22.945,34.627H409.905
		L409.905,63.326z M450.702,63.326h6.352L440.159,20.85h-6.771l-16.895,42.477h6.291l4.494-11.861h18.811L450.702,63.326
		L450.702,63.326z M436.624,26.961l7.369,19.052h-14.619L436.624,26.961L436.624,26.961z M489.583,63.326v-5.513h-20.07V20.85
		h-5.871v42.477L489.583,63.326L489.583,63.326z M522.891,63.326v-5.451h-19.949v-13h18.094V39.36h-18.094v-13.06h19.949V20.85
		h-25.82v42.477L522.891,63.326L522.891,63.326z"/>
	<path fill="#222222" d="M239.97,7.97c0,2.336,1.797,4.133,4.134,4.133c2.336,0,4.194-1.797,4.194-4.133
		c0-2.337-1.858-4.194-4.194-4.194C241.767,3.776,239.97,5.633,239.97,7.97L239.97,7.97z"/>
	<path fill="#222222" d="M257.344,7.97c0,2.336,1.797,4.133,4.134,4.133c2.336,0,4.192-1.797,4.192-4.133
		c0-2.337-1.856-4.194-4.192-4.194C259.141,3.776,257.344,5.633,257.344,7.97L257.344,7.97z"/>
	<path fill="#222222" d="M274.715,7.97c0,2.336,1.8,4.133,4.136,4.133s4.192-1.797,4.192-4.133c0-2.337-1.856-4.194-4.192-4.194
		S274.715,5.633,274.715,7.97L274.715,7.97z"/>
	<path fill="#222222" d="M28.428,63.326h6.83L25.133,45.533c6.41-1.199,10.305-5.933,10.305-12.041
		c0-7.01-4.973-12.643-13.001-12.643H6.441v42.477h5.932V45.953h6.351L28.428,63.326L28.428,63.326z M12.373,40.681V26.123h8.986
		c4.793,0,8.028,2.875,8.028,7.37c0,4.371-3.235,7.188-8.028,7.188H12.373L12.373,40.681z M58.802,64.226
		c8.627,0,15.277-5.392,15.277-15.396V20.85h-5.871v27.799c0,6.471-3.415,10.125-9.406,10.125c-5.931,0-9.466-3.654-9.466-10.125
		V20.85h-5.812v27.979C43.525,58.834,50.175,64.226,58.802,64.226L58.802,64.226z M118.293,63.326V20.85h-5.872v18.152H90.734V20.85
		h-5.872v42.477h5.872V44.455h21.688v18.871H118.293L118.293,63.326z M151.663,63.326h6.83l-10.125-17.793
		c6.409-1.199,10.304-5.933,10.304-12.041c0-7.01-4.973-12.643-13-12.643h-15.996v42.477h5.931V45.953h6.351L151.663,63.326
		L151.663,63.326z M135.606,40.681V26.123h8.986c4.793,0,8.028,2.875,8.028,7.37c0,4.371-3.235,7.188-8.028,7.188H135.606
		L135.606,40.681z"/>
	<polygon fill="#222222" points="247.129,63.326 247.129,20.85 241.138,20.85 241.138,63.326 	"/>
	<polygon fill="#222222" points="264.503,63.326 264.503,20.85 258.512,20.85 258.512,63.326 	"/>
	<polygon fill="#222222" points="281.875,63.326 281.875,20.85 275.885,20.85 275.885,63.326 	"/>
</g>
</svg>
