<?xml version="1.0" encoding="utf-8"?>
<!-- Generator: Adobe Illustrator 16.0.0, SVG Export Plug-In . SVG Version: 6.00 Build 0)  -->
<!DOCTYPE svg PUBLIC "-//W3C//DTD SVG 1.1//EN" "http://www.w3.org/Graphics/SVG/1.1/DTD/svg11.dtd">
<svg version="1.1" id="Calque_1" xmlns="http://www.w3.org/2000/svg" xmlns:xlink="http://www.w3.org/1999/xlink" x="0px" y="0px"
	 width="40px" height="40px" viewBox="0 0 138.963 138.968" enable-background="new 0 0 138.963 138.968"
	 xml:space="preserve">
<path fill="#FFFFFF" d="M100.452,105.591L81.319,86.458c-5.182,4.045-11.544,6.271-18.271,6.271c-7.905,0-15.363-3.091-20.999-8.682
	c-5.59-5.59-8.675-13.043-8.675-20.997c0-7.953,3.085-15.406,8.675-20.991c5.636-5.595,13.094-8.686,20.999-8.686
	c7.954,0,15.407,3.09,20.997,8.686c5.636,5.585,8.726,13.038,8.726,20.991c0,6.727-2.271,13.089-6.315,18.272l19.133,19.133
	L100.452,105.591z M63.049,85.503c5.999,0,11.636-2.316,15.907-6.59c4.227-4.227,6.544-9.867,6.544-15.86
	c0-5.999-2.317-11.634-6.544-15.906c-4.271-4.227-9.908-6.549-15.907-6.549S51.415,42.92,47.19,47.146
	c-4.277,4.272-6.592,9.908-6.592,15.906c0,5.994,2.314,11.635,6.544,15.862C51.415,83.187,57.05,85.503,63.049,85.503"/>
</svg>
