<?xml version="1.0" encoding="utf-8"?>
<!-- Generator: Adobe Illustrator 16.0.0, SVG Export Plug-In . SVG Version: 6.00 Build 0)  -->
<!DOCTYPE svg PUBLIC "-//W3C//DTD SVG 1.1//EN" "http://www.w3.org/Graphics/SVG/1.1/DTD/svg11.dtd">
<svg version="1.1" id="Calque_1" xmlns="http://www.w3.org/2000/svg" xmlns:xlink="http://www.w3.org/1999/xlink" x="0px" y="0px"
	 width="29.99px" height="30px" viewBox="0 0 29.99 30" enable-background="new 0 0 29.99 30" xml:space="preserve">
<g>
	<path fill="#FFFFFF" d="M29.12,13.843v2.315h-3.301c-0.535,5.08-4.587,9.132-9.667,9.668v3.299h-2.315v-3.299
		c-5.08-0.536-9.132-4.588-9.668-9.668H0.87v-2.315h3.299c0.536-5.08,4.588-9.133,9.668-9.667v-3.3h2.315v3.3
		c5.08,0.535,9.132,4.587,9.667,9.667H29.12z M23.562,15c0-4.732-3.835-8.568-8.566-8.568c-4.733,0-8.568,3.836-8.568,8.568
		c0,4.733,3.835,8.568,8.568,8.568C19.727,23.568,23.562,19.733,23.562,15z M17.078,15c0,1.143-0.941,2.085-2.083,2.085
		c-1.145,0-2.084-0.942-2.084-2.085c0-1.143,0.94-2.084,2.084-2.084C16.137,12.916,17.078,13.857,17.078,15z"/>
</g>
</svg>
